<?xml version="1.0" standalone="no"?>
<!DOCTYPE svg PUBLIC "-//W3C//DTD SVG 20010904//EN"
 "http://www.w3.org/TR/2001/REC-SVG-20010904/DTD/svg10.dtd">
<svg version="1.0" xmlns="http://www.w3.org/2000/svg"
 width="128.000000pt" height="128.000000pt" viewBox="0 0 128.000000 128.000000"
 preserveAspectRatio="xMidYMid meet">
<metadata>
Created by potrace 1.11, written by Peter Selinger 2001-2013
</metadata>
<g transform="translate(0.000000,128.000000) scale(0.100000,-0.100000)"
fill="#000000" stroke="none">
<path d="M275 1236 c-38 -17 -60 -41 -80 -89 -13 -31 -15 -106 -15 -510 0
-471 0 -473 22 -517 46 -88 30 -85 441 -85 l362 0 33 23 c66 48 67 51 70 417
2 182 0 350 -3 375 -6 42 -18 57 -168 208 -89 90 -174 170 -189 178 -37 19
-429 20 -473 0z m414 -10 c-2 -2 -76 -14 -164 -25 -195 -26 -231 -35 -250 -65
-12 -18 -20 -116 -38 -462 l-22 -439 -3 445 c-3 503 -5 492 72 530 37 18 60
20 225 20 101 0 182 -2 180 -4z m166 -546 l0 -35 -215 0 -215 0 -3 23 c-8 53
-9 53 220 50 l213 -3 0 -35z m0 -140 l0 -35 -215 0 -215 0 -3 23 c-8 53 -9 53
220 50 l213 -3 0 -35z m-100 -140 l0 -35 -165 0 -165 0 -3 23 c-8 52 -5 53
170 50 l163 -3 0 -35z"/>
</g>
</svg>
